<?xml version="1.0" encoding="utf-8"?>
<!-- Generator: Adobe Illustrator 27.7.0, SVG Export Plug-In . SVG Version: 6.00 Build 0)  -->
<svg version="1.1" id="Capa_1" xmlns="http://www.w3.org/2000/svg" xmlns:xlink="http://www.w3.org/1999/xlink" x="0px" y="0px"
	 viewBox="0 0 595.28 841.89" style="enable-background:new 0 0 595.28 841.89;" xml:space="preserve">
<style type="text/css">
	.st0{fill:#9E338A;}
	.st1{fill:#BA659E;}
</style>
<g>
	<g>
		<path class="st0" d="M102.23,424.12c-5.96-1.6-2.16,3.2-13.67-8.17c-10.41-10.09-9.49-25.38-8.81-38.67
			c1.84-36.48,7.06-72.94,10.2-109.32c6.55-0.82,9.82-1.19,16.37-1.85c-3.8,34.02-8.58,67.81-13.48,101.67
			c-2.05,14.19-5.66,30.05-2.35,44.37c4.41,1.43,6.66,1.92,11.59,2.47C101.75,418.69,101.76,420.51,102.23,424.12z"/>
		<path class="st0" d="M127.19,423.71c-10.66,1.91-14.6,2.17-21.45,1.14c0.15-16.59,7.23-33.15,11.83-48.85
			c10.84-37.01,18.65-74.57,25.12-112.58c15.01-0.67,30-1.09,45.03-1.32c-2.82,12.89-5.8,25.71-9.31,38.43
			c-11.07,0.59-16.53,0.88-27.38,1.54c-4.98,20.59-10.45,40.98-17.04,61.12c8.02-0.86,12.13-1.34,20.66-2.45
			c-3.09,7.8-5.11,12.4-8.31,19.35c-8,1.14-11.79,1.61-19.12,2.37c-4.1,10.81-8.47,21.6-12.14,32.57c6.29-0.33,9.71-0.74,17.48-2.06
			C130.15,417.5,129.06,419.59,127.19,423.71z"/>
		<path class="st0" d="M184.82,403.3c-4.1,4.82-9.69,8.08-16.19,9.95c-9.24,2.68-18.55,5.27-27.9,7.54
			c-4.74,1.15-5.59-0.72-2.6-5.78c4.67-7.92,7.44-12.09,13.43-22.7c5.36-0.95,8.16-1.48,14.02-2.66c-5.6,9.01-8.25,12.73-13.06,19.7
			c6.6-1.53,10.14-2.42,17.85-4.4c5.14-6.58,7.9-10.09,13.61-18.49c-5.21-10.09-7.67-21.72-10.53-32.58
			c-0.78-2.97-0.05-7.26,2.3-13.33c6.46-16.86,11.79-34,16.69-51.37c2.39-9.01,5.62-24.91,16.51-27.2
			c11.02,0.01,22.03,0.06,33.05,0.11c9.56,3.86,6.22,16.79,3.52,24.69c-5,16.1-10.47,31.88-17.29,47.32
			c-6.98,0.96-10.38,1.41-17.06,2.27c5.71-13.06,10.43-26.42,14.93-39.94c-8.11,0.44-12.12,0.64-20.07,1.04
			c-4.29,13.48-8.8,26.82-14.15,39.91c3.09,12.19,6.28,24.82,12.04,36.09c1.02,1.9,0.3,4.7-2.19,8.24
			C194.68,391.76,191.24,395.75,184.82,403.3z"/>
		<path class="st0" d="M279.13,377.31c-3.17,3.81-11.07,7.23-22.38,10.42c-17.01,4.82-34.01,9.71-50.98,14.68
			c-8.43,2.47-10.2,1.45-6.06-3.22c29.2-32.39,46.13-71.48,59.15-112.69c2.41-9.46,5.81-21.13,15.97-24.27
			c11.46-0.03,22.9-0.11,34.36-0.28c6.72-0.12,9.44,7.74,7.16,20.87c-2.66,13.65-5.63,27.09-9.75,40.38
			c-8.57,1.54-12.74,2.27-20.88,3.66c4.34-11.35,7.99-22.95,10.97-34.73c-9.38,0.84-13.99,1.21-23.09,1.89
			c-11.51,35.16-25.74,68.59-50.46,96.57c10.3-2.82,20.6-5.62,30.91-8.41c5.1-5.9,7.67-9.08,12.76-16.9
			c9.53-2.34,14.51-3.56,24.93-6.12C286.82,367.79,284.27,371.12,279.13,377.31z"/>
		<path class="st0" d="M366.16,358.35c-6.95,1.82-10.55,2.75-18,4.7c1.87-3.36,2.63-5.12,3.92-9.38
			c-9.61,2.39-14.57,3.62-24.85,6.17c-4.58,5.21-6.99,7.46-11.96,11.86c-8.29,2.21-11.63,3.09-24.19,6.51
			c0.05-0.06,0.07-0.08,0.12-0.14c38.56-28.15,51.58-72.48,58.41-117.87c6.94-0.39,10.41-0.62,17.36-1.16
			C369.4,287.42,380.52,331.2,366.16,358.35z M353.86,345.68c2.32-14.5,1.35-28.47,1.22-43.08c-5.06,16.92-10.46,32.88-20.43,47.66
			C342.51,348.4,346.35,347.48,353.86,345.68z"/>
		<path class="st0" d="M426.03,341.83c-4.52,1.39-6.87,2.08-11.73,3.48c7.05-11.96,0.64-26.34-3.66-37.87
			c0.62,2.16,1.15,3.23,0.8,5.03c-3.88,15.1-7.92,28.35-19.85,39.15c-6.1,1.64-9.26,2.48-15.82,4.21
			c24.74-25.15,22.06-66.9,21.55-99.19c5.72-0.58,8.57-0.9,14.27-1.57c3.97,14.39,7.02,30.05,12.17,44.16
			c2.87,7.86,6.98,13.71,7.83,22.62c0.32-2.22,0.66-4.18,1.14-5.7c7.53-18.02,4.78-46.07,3.9-64.31c6.35-0.87,9.53-1.32,15.9-2.23
			C453.73,282.5,455.07,319.91,426.03,341.83z"/>
		<path class="st0" d="M480.38,319.62c-5.88,3.58-11.1,6.08-14.87,7.8c-8.09,3.7-12.56,5.43-22.49,8.89
			c-4.53,1.57-4.57,0.86-0.6-2.51c21.78-18.28,22.4-44.55,24.04-70.76c0.06-9.58,2.5-15.78,9.04-16.68
			c11.97-1.67,24.09-2.77,35.9-5.43c6.58-1.23,10.41,3.37,9.58,11.99C515.83,282.62,505.55,302.14,480.38,319.62z M473.3,321.85
			c20.67-17.41,26.94-34.42,31.38-60.42c-8.64,2.08-13.24,2.58-22.14,4.18c-2.73,23.8-5.5,45.67-25.15,62
			C464.08,325.36,467.28,324.26,473.3,321.85z"/>
	</g>
</g>
<g>
	<g>
		<path class="st1" d="M209.38,236.72c-41.44,0.04-82.61,1.19-123.81,5.96c2.5-31.68,4.3-63.38,6.22-95.1
			c1.22-20.11-0.18-46.34,13.05-62.95c19.28-18.45,37.53-16.39,63.01-12.61c1.45,5.04,2.35,7.62,4.35,13.41
			c-17.07-2.53-34.01-4.91-51.15-1.5c-0.22,13.59,1.19,27.19,2.19,40.73c17.4-1.76,34.54-0.8,51.9,0.74
			c2.23,9.51,3.35,14.81,5.43,26.97c-18.71-0.97-36.97-1.03-55.65,0.56c0.85,21.51,2.28,42.9,3.79,64.36
			c25.29-1.86,50.46-2.34,75.81-2.12C206.54,224.05,207.5,228.36,209.38,236.72z"/>
		<path class="st1" d="M367.27,233.79c-45.91,3.46-91.82,3.3-137.83,3.01c-1.15-4.97-1.73-7.51-2.94-12.67
			c17.51-40.9,27.97-90.94,72.89-108.96c-33.71-8.25-67.34-16.91-101.24-24.36c-2.36-5.84-3.47-8.45-5.37-13.56
			c56.91,13.3,113.31,29.01,169.96,43.39c0.69,2.41,1.03,3.64,1.68,6.22c-39.03,18.01-62.52,54.83-84.59,90.17
			c29.83,1.06,59.53,1.61,89.36,0.61C368.6,224.27,368.2,227.51,367.27,233.79z"/>
		<path class="st1" d="M516.85,214.17c-40.98,7.17-82.44,12.8-123.79,17.32c5.27-32.78,8.96-72.15-3.34-103.95
			c28.66,7.55,58.34,14.41,85.29,27.09c4.44,2.18,6.46,3.29,10.15,5.61c-17.24-5.79-34.88-10.18-52.53-14.48
			c3.54,7.26,4.79,11.2,6.31,21.53c18.25,2.04,36.48,4.26,54.73,6.27c1.99,3.09,2.85,4.73,4.38,8.26
			c-19.31-0.38-38.62-1.23-57.92-1.95c0.25,11.25,0.21,21.88-0.64,33.09c25.44-2.61,50.85-5.1,76.19-8.58
			C516.4,208.37,516.62,210.34,516.85,214.17z"/>
	</g>
</g>
</svg>
