<?xml version="1.0" encoding="utf-8"?>
<!-- Generator: Adobe Illustrator 27.7.0, SVG Export Plug-In . SVG Version: 6.00 Build 0)  -->
<svg version="1.1" id="Capa_1" xmlns="http://www.w3.org/2000/svg" xmlns:xlink="http://www.w3.org/1999/xlink" x="0px" y="0px"
	 viewBox="0 0 111 48" style="enable-background:new 0 0 111 48;" xml:space="preserve">
<style type="text/css">
	.st0{fill:#F9F9F7;}
	.st1{fill:#FFFFFF;}
	.st2{fill:url(#SVGID_1_);}
	.st3{fill:url(#SVGID_00000083799864148458707850000015739775706731127739_);}
	.st4{fill:url(#SVGID_00000160172680033835142720000009916878054883460260_);}
	.st5{fill:none;}
	.st6{fill:#FCFCFA;}
	.st7{fill:#FFFFFD;}
	.st8{fill:#F9F9F9;}
	.st9{fill:#FCFCF7;}
</style>
<path class="st0" d="M61.92,47.2V30.88c0-0.71,0.14-1.36,0.42-1.94c0.28-0.6,0.65-1.08,1.11-1.43c0.47-0.36,0.99-0.53,1.55-0.53
	h9.78c0.56,0,1.08,0.18,1.55,0.53c0.47,0.36,0.85,0.83,1.13,1.43c0.28,0.58,0.42,1.23,0.42,1.94V47.2h-2.95v-6.8H64.85v6.8H61.92z
	 M64.85,36.7h10.09v-5.65c0-0.09-0.03-0.17-0.09-0.22c-0.06-0.07-0.13-0.11-0.2-0.11h-9.54c-0.07,0-0.14,0.04-0.2,0.11
	c-0.04,0.06-0.07,0.13-0.07,0.22V36.7z"/>
<path class="st1" d="M3.77,43.47h11.76v3.74H0.82V26.98h2.93"/>
<path class="st1" d="M78.46,47.2V26.98h3.22l9.81,14.78V26.98h2.95V47.2h-3.22l-9.83-14.8v14.8H78.46z"/>
<linearGradient id="SVGID_1_" gradientUnits="userSpaceOnUse" x1="17.7605" y1="40.8955" x2="95.6066" y2="31.1578" gradientTransform="matrix(1 0 0 -1 0 47.89)">
	<stop  offset="0.1831" style="stop-color:#FF56F6"/>
	<stop  offset="0.4326" style="stop-color:#B936EE"/>
	<stop  offset="0.8544" style="stop-color:#3BACE2"/>
	<stop  offset="1" style="stop-color:#406AFF"/>
</linearGradient>
<path class="st2" d="M41.85,21.29V1.06h18.62V4.8H45.58v4.49h11.97v3.76H45.58v4.49h14.89v3.74H41.85z"/>
<linearGradient id="SVGID_00000112601594565057750810000001385592518175878545_" gradientUnits="userSpaceOnUse" x1="-12.0587" y1="8.9572" x2="65.7874" y2="-0.7805" gradientTransform="matrix(7.475827e-03 1 1 -7.475827e-03 28.44 -32.0614)">
	<stop  offset="0.1831" style="stop-color:#FF56F6"/>
	<stop  offset="0.4326" style="stop-color:#B936EE"/>
	<stop  offset="0.8544" style="stop-color:#3BACE2"/>
	<stop  offset="1" style="stop-color:#406AFF"/>
</linearGradient>
<path style="fill:url(#SVGID_00000112601594565057750810000001385592518175878545_);" d="M20.61,1.14l20.23-0.15l0.03,4.07
	L26.19,17.58l14.78-0.11l0.03,3.74l-20.23,0.15l-0.03-4.07L35.45,4.73l-14.8,0.11L20.61,1.14z"/>
<linearGradient id="SVGID_00000052105668610109257040000011411203595721904275_" gradientUnits="userSpaceOnUse" x1="-22.9563" y1="40.8955" x2="54.8898" y2="31.1578" gradientTransform="matrix(1 0 0 -1 0 47.89)">
	<stop  offset="0.1831" style="stop-color:#FF56F6"/>
	<stop  offset="0.4326" style="stop-color:#B936EE"/>
	<stop  offset="0.8544" style="stop-color:#3BACE2"/>
	<stop  offset="1" style="stop-color:#406AFF"/>
</linearGradient>
<path style="fill:url(#SVGID_00000052105668610109257040000011411203595721904275_);" d="M1.13,21.29V1.06h18.62V4.8H4.87v4.49
	h11.97v3.76H4.87v4.49h14.89v3.74H1.13z"/>
<line class="st5" x1="4.25" y1="24.81" x2="4.25" y2="42.03"/>
<path class="st1" d="M16.09,47.2V26.98H30.8v3.74H19.04v4.49h9.45v3.76h-9.45v4.49H30.8v3.74H16.09z"/>
<path class="st6" d="M49.6,43.47h11.76v3.74H46.65V26.98h14.71v3.74H49.6v4.49"/>
<path class="st7" d="M46.08,37.45c-0.02,2.46-0.05,4.92-0.07,7.38c-0.96,0.79-1.92,1.58-2.88,2.37c0.05-0.46,0.43-4.12,0.56-7.34
	c0.07-1.75,0.08-3.49,0.08-3.49c0-0.48,0-0.88,0-1.16"/>
<path class="st8" d="M31.37,37.27c0-3.43,0-6.86,0-10.29c4.9,0,9.81,0,14.71,0v3.74H34.32c0,1.5,0,3,0,4.49c3.15,0,6.3,0,9.45,0
	c0,1.25,0,2.51,0,3.76c-3.15,0-6.3,0-9.45,0"/>
<path class="st6" d="M34.32,43.47h11.76c-0.98,1.25-1.97,2.49-2.95,3.74c-3.92,0-7.84,0-11.76,0v-3.3"/>
<path class="st9" d="M110.98,26.98v5.05 M108.07,26.98h2.91 M108.07,47.2h-9.96c-0.56,0-1.08-0.18-1.55-0.53
	c-0.47-0.36-0.85-0.83-1.13-1.43C95.14,44.66,95,44.01,95,43.3V30.88c0-0.71,0.14-1.37,0.42-1.97c0.28-0.58,0.66-1.05,1.13-1.4
	c0.47-0.36,0.99-0.53,1.55-0.53h9.96 M110.98,47.2h-2.91 M110.98,32.03V47.2 M108.07,43.13V31.05c0-0.09-0.02-0.18-0.07-0.25
	c-0.06-0.06-0.13-0.08-0.2-0.08h-9.56c-0.07,0-0.14,0.03-0.2,0.08c-0.06,0.07-0.09,0.16-0.09,0.25v12.08c0,0.09,0.03,0.17,0.09,0.22
	c0.06,0.07,0.13,0.11,0.2,0.11h9.56c0.07,0,0.14-0.04,0.2-0.11C108.05,43.3,108.07,43.22,108.07,43.13"/>
<path class="st6" d="M95.03,47.2v-5.05 M97.93,47.2h-2.91 M97.93,26.98l9.96,0c0.56,0,1.08,0.18,1.55,0.53
	c0.47,0.36,0.85,0.83,1.13,1.43c0.28,0.58,0.42,1.23,0.42,1.94V43.3c0,0.71-0.14,1.37-0.42,1.97c-0.28,0.58-0.66,1.05-1.13,1.4
	c-0.47,0.36-0.99,0.53-1.55,0.53l-9.96,0 M95.03,26.98l2.91,0 M95.03,42.15V26.98 M97.93,31.05l0,12.08c0,0.09,0.02,0.18,0.07,0.25
	c0.06,0.06,0.13,0.08,0.2,0.08l9.56,0c0.07,0,0.14-0.03,0.2-0.08c0.06-0.07,0.09-0.16,0.09-0.25l0-12.08c0-0.09-0.03-0.17-0.09-0.22
	c-0.06-0.07-0.13-0.11-0.2-0.11l-9.56,0c-0.07,0-0.14,0.04-0.2,0.11C97.96,30.88,97.93,30.96,97.93,31.05"/>
</svg>
